<?xml version="1.0" encoding="UTF-8" standalone="no"?>
<!-- Created with Inkscape (http://www.inkscape.org/) -->

<svg
   width="90.766052mm"
   height="167.67383mm"
   viewBox="0 0 90.766052 167.67383"
   version="1.1"
   id="svg1"
   inkscape:version="1.4.3 (0d15f75, 2025-12-25)"
   sodipodi:docname="water_me_logo.svg"
   xmlns:inkscape="http://www.inkscape.org/namespaces/inkscape"
   xmlns:sodipodi="http://sodipodi.sourceforge.net/DTD/sodipodi-0.dtd"
   xmlns="http://www.w3.org/2000/svg"
   xmlns:svg="http://www.w3.org/2000/svg">
  <sodipodi:namedview
     id="namedview1"
     pagecolor="#ffffff"
     bordercolor="#000000"
     borderopacity="0.25"
     inkscape:showpageshadow="2"
     inkscape:pageopacity="0.0"
     inkscape:pagecheckerboard="0"
     inkscape:deskcolor="#d1d1d1"
     inkscape:document-units="mm"
     inkscape:zoom="1.0396254"
     inkscape:cx="196.70546"
     inkscape:cy="351.56893"
     inkscape:window-width="2560"
     inkscape:window-height="1369"
     inkscape:window-x="-8"
     inkscape:window-y="-8"
     inkscape:window-maximized="1"
     inkscape:current-layer="layer2"
     showguides="true">
    <sodipodi:guide
       position="53.272533,298.7586"
       orientation="0,-1"
       id="guide1"
       inkscape:locked="false" />
    <sodipodi:guide
       position="-1.9536826,209.93855"
       orientation="1,0"
       id="guide2"
       inkscape:locked="false" />
    <sodipodi:guide
       position="101.62729,127.73546"
       orientation="0,-1"
       id="guide3"
       inkscape:locked="false" />
    <sodipodi:guide
       position="92.719833,173.79973"
       orientation="1,0"
       id="guide4"
       inkscape:locked="false" />
  </sodipodi:namedview>
  <defs
     id="defs1" />
  <g
     inkscape:groupmode="layer"
     id="layer2"
     inkscape:label="Capa 2"
     transform="translate(-52.853426,-55.457829)">
    <path
       style="fill:#44aa00;fill-opacity:1;stroke:#000000;stroke-width:0.811001;stroke-opacity:1"
       id="path17"
       d="m 87.165115,122.17904 c -1.044871,1.97013 -2.140077,3.91077 -3.083716,5.93289 -0.747016,1.59327 -1.191913,3.3069 -1.429133,5.04764 -0.144193,1.05811 -0.147966,1.80234 -0.189619,2.86554 -0.07653,2.3454 0.322447,4.65246 1.018923,6.88305 0.520057,1.54584 1.117833,3.0553 1.803461,4.53426 0.758084,1.55745 1.708031,3.01775 2.718435,4.42214 0.771798,1.08533 1.563899,2.15606 2.3329,3.24337 0.489178,0.74577 0.84522,1.56645 1.191353,2.3854 0.279675,0.68031 0.363037,1.40609 0.407855,2.13308 0.03256,0.75418 0.02461,1.50935 0.01757,2.26398 -0.01162,0.64631 -0.0035,1.29262 -0.0049,1.93898 -0.0019,0.4395 -7.94e-4,0.22241 -0.0028,0.65128 0,0 4.947483,2.6e-4 4.947483,2.6e-4 v 0 c -0.0016,-0.42868 -7.94e-4,-0.21168 -0.0019,-0.65097 1.56e-4,-0.64598 0.0108,-1.29186 0.0055,-1.93786 -0.0019,-0.76469 0.0019,-1.52961 -0.02215,-2.29402 -0.04188,-0.78345 -0.137308,-1.56224 -0.41938,-2.30086 -0.356548,-0.85312 -0.730203,-1.70257 -1.21602,-2.4912 -0.775343,-1.09857 -1.613149,-2.15107 -2.389585,-3.24899 -1.020876,-1.35941 -1.934395,-2.80844 -2.700149,-4.326 -0.679776,-1.46448 -1.285301,-2.95423 -1.829321,-4.4751 -0.733981,-2.165 -1.138979,-4.41877 -1.09078,-6.7124 0.03918,-1.02849 0.04111,-1.77497 0.186418,-2.79682 0.242041,-1.70218 0.742056,-3.36266 1.456296,-4.92446 0.956537,-2.0272 2.046877,-3.98588 3.212957,-5.9 z" />
  </g>
  <g
     inkscape:label="Capa 1"
     inkscape:groupmode="layer"
     id="layer1"
     transform="translate(-52.853426,-55.457829)">
    <path
       id="path2"
       style="fill:#c87137;fill-opacity:1;stroke:#000000;stroke-width:1.19879;stroke-opacity:1"
       d="m 143.01663,167.62603 a 57.195948,51.186051 84.709272 0 0 -69.491049,-9.01762 57.195948,51.186051 84.709272 0 0 -20.069305,43.8356 57.195948,51.186051 84.709272 0 0 69.492854,9.01612 57.195948,51.186051 84.709272 0 0 20.0675,-43.8341 z" />
    <path
       id="path3"
       style="fill:#44aa00;fill-opacity:1;stroke:#000000;stroke-width:0.811;stroke-linejoin:miter;stroke-dasharray:none;stroke-opacity:1;paint-order:normal"
       d="M 116.43285,56.768797 A 44.632509,30.016007 89.235934 0 0 81.758727,88.452356 44.632509,30.016007 89.235934 0 0 86.600588,126.61759 44.632509,30.016007 89.235934 0 0 121.27505,94.932233 44.632509,30.016007 89.235934 0 0 116.43285,56.768797 Z" />
    <text
       xml:space="preserve"
       style="font-size:11.2889px;writing-mode:lr-tb;direction:ltr;fill:#44aa00;fill-opacity:1;stroke:none;stroke-width:0.811001;stroke-linejoin:miter;stroke-dasharray:none;stroke-opacity:1;paint-order:normal"
       x="66.424171"
       y="187.31105"
       id="text5"><tspan
         id="tspan5"
         style="font-style:normal;font-variant:normal;font-weight:normal;font-stretch:normal;font-size:11.2889px;font-family:'Comic Sans MS';-inkscape-font-specification:'Comic Sans MS';fill:#ffffff;fill-opacity:1;stroke:none;stroke-width:0.811"
         x="66.424171"
         y="187.31105"
         sodipodi:role="line">WATER ME!</tspan></text>
    <text
       xml:space="preserve"
       style="font-style:normal;font-variant:normal;font-weight:normal;font-stretch:normal;font-size:11.2889px;font-family:'Comic Sans MS';-inkscape-font-specification:'Comic Sans MS';writing-mode:lr-tb;direction:ltr;fill:#ffffff;fill-opacity:1;stroke:none;stroke-width:0.811001;stroke-linejoin:miter;stroke-dasharray:none;stroke-opacity:1;paint-order:normal"
       x="138.4473"
       y="165.16966"
       id="text6"><tspan
         sodipodi:role="line"
         id="tspan6"
         style="stroke-width:0.811"
         x="138.4473"
         y="165.16966" /></text>
    <ellipse
       style="fill:#000000;fill-opacity:1;stroke:none;stroke-width:0.811001;stroke-linejoin:miter;stroke-dasharray:none;stroke-opacity:1;paint-order:normal"
       id="path6"
       cx="96.964005"
       cy="74.949867"
       rx="3.0539844"
       ry="2.9267352" />
    <ellipse
       style="fill:#000000;fill-opacity:1;stroke:none;stroke-width:0.811001;stroke-linejoin:miter;stroke-dasharray:none;stroke-opacity:1;paint-order:normal"
       id="ellipse6"
       cx="112.23393"
       cy="77.494858"
       rx="3.0539844"
       ry="2.9267352" />
    <path
       style="fill:#000000;fill-opacity:1;stroke:none;stroke-width:0.811001;stroke-linejoin:miter;stroke-dasharray:none;stroke-opacity:1;paint-order:normal"
       id="path7"
       d="m 90.009114,100.30065 c 0.109199,2.06112 0.42445,4.10062 0.787111,6.12979 0.302882,1.10672 0.523251,2.53384 1.18935,3.50234 0.339053,0.49298 0.577189,0.60876 1.049007,0.95894 1.420836,0.80482 3.412072,2.20137 5.255908,2.18926 0.198411,-10e-4 0.394729,-0.0408 0.592095,-0.0612 1.335505,-0.30133 2.353755,-1.19071 3.331485,-2.09204 1.07471,-0.95237 1.87673,-2.11233 2.52445,-3.38444 0.26649,-0.58046 0.491,-1.17796 0.7101,-1.77736 0,0 -2.14408,-1.18751 -2.14408,-1.18751 v 0 c -0.21009,0.59258 -0.42866,1.18189 -0.69044,1.75418 -0.62689,1.25277 -1.42064,2.37815 -2.4774,3.30967 -0.948823,0.86481 -1.938611,1.72564 -3.248372,1.95087 -0.871061,0.0371 -1.52359,-0.096 -2.344031,-0.40053 -0.225772,-0.0838 -0.857549,-0.42434 -0.66747,-0.27648 0.440132,0.34239 0.952905,0.57945 1.429356,0.86917 -0.431125,-0.27855 -0.768019,-0.44475 -1.093073,-0.85606 -0.673783,-0.85258 -0.973032,-2.42865 -1.261261,-3.4485 -0.364469,-2.00268 -0.67923,-4.01911 -0.739886,-6.05771 z" />
    <path
       style="fill:#000000;fill-opacity:1;stroke:#000000;stroke-width:0.811001;stroke-linejoin:miter;stroke-dasharray:none;stroke-opacity:1;paint-order:normal"
       id="path8"
       d="m 103.09768,84.869096 c -0.61537,0.858117 -1.255,1.696111 -1.96807,2.475693 -0.49646,0.495768 -1.00327,0.975939 -1.504787,1.466815 -0.531251,0.440484 -0.942205,0.987388 -1.506251,1.389632 -0.405445,0.305231 -1.238682,0.571645 -1.411955,1.090456 -0.03901,0.116806 -0.02085,0.245414 -0.03125,0.368123 0.05419,0.153879 0.08714,0.316981 0.162568,0.461639 0.502835,0.964327 1.945942,1.997282 2.790359,2.695178 0.705286,0.549492 0.369679,0.285216 1.007526,0.791949 0,0 2.27534,0.912542 2.27534,0.912542 v 0 c -0.64639,-0.516109 -0.30506,-0.250251 -1.02585,-0.795176 -0.88624,-0.72536 -2.170343,-1.633873 -2.809616,-2.576361 -0.07796,-0.11493 -0.12931,-0.245806 -0.193966,-0.368708 -0.0127,-0.08019 -0.05584,-0.161338 -0.03812,-0.240572 0.09546,-0.42689 1.052134,-0.743604 1.362882,-1.01581 0.55934,-0.423733 0.98847,-0.97073 1.5278,-1.417661 0.50184,-0.495033 1.01136,-0.979789 1.50056,-1.487136 0.70539,-0.796337 1.34613,-1.642467 1.9911,-2.48758 z" />
    <path
       style="fill:#000000;stroke:#000000;stroke-width:0.811001"
       id="path1"
       d="m 75.397806,166.42837 c 1.738871,-2.08007 3.611303,-4.0618 5.851422,-5.61201 0.464426,-0.32139 0.958958,-0.59694 1.438436,-0.89541 1.32638,-0.74254 2.740742,-1.19896 4.243835,-1.39614 0.410874,-0.0539 0.826085,-0.0669 1.239126,-0.10038 0,0 -0.390192,-0.27858 -0.390192,-0.27858 v 0 c -0.413234,0.0352 -0.828733,0.0498 -1.239705,0.10548 -1.505506,0.20402 -2.922183,0.66715 -4.249759,1.41393 -0.479705,0.30006 -0.974378,0.57744 -1.439116,0.9002 -2.240711,1.55618 -4.113766,3.54097 -5.873795,5.60799 z" />
    <path
       style="fill:#000000;stroke:#000000;stroke-width:0.811001"
       id="path4"
       d="m 84.692629,170.43167 c 1.302869,-1.25486 2.620574,-2.50427 4.176504,-3.44891 0.461441,-0.28015 0.949004,-0.51482 1.423508,-0.77222 2.10107,-1.00889 4.360397,-1.64106 6.673419,-1.91584 1.430792,-0.16997 1.955265,-0.13938 3.38638,-0.15769 2.15261,0.13069 1.09804,0.0356 3.16429,0.27883 0,0 -0.38076,-0.28344 -0.38076,-0.28344 v 0 c -2.06692,-0.23884 -1.01178,-0.14586 -3.165971,-0.27245 -1.433976,0.0208 -1.955821,-0.009 -3.38931,0.16391 -2.316977,0.27944 -4.579681,0.91598 -6.684206,1.92792 -0.475975,0.25835 -0.964938,0.4941 -1.427924,0.77507 -1.559304,0.94627 -2.880418,2.19658 -4.195959,3.44356 z" />
    <path
       style="fill:#000000;stroke:#000000;stroke-width:0.811001"
       id="path5"
       d="m 106.15185,157.17103 c 1.92002,0.0516 3.73219,0.79211 5.48724,1.50694 3.05812,1.40167 5.8652,3.27966 8.75453,4.98891 3.42147,2.08685 7.03748,3.81401 10.73036,5.3574 0,0 -0.36748,-0.28988 -0.36748,-0.28988 v 0 c -3.40927,-1.42535 -6.76098,-2.99657 -9.93268,-4.90185 -3.156,-1.86693 -6.2254,-3.91334 -9.56168,-5.45133 -1.76332,-0.71514 -3.58216,-1.45251 -5.51032,-1.50083 z" />
    <path
       style="fill:#000000;stroke:#000000;stroke-width:0.811001"
       id="path9"
       d="m 115.0515,170.85167 c 1.96796,1.11385 3.98275,2.14926 6.10899,2.93027 0.55943,0.20549 1.1307,0.37721 1.69605,0.56581 1.48451,0.52735 3.02033,0.61918 4.57466,0.6661 0,0 -0.38499,-0.28155 -0.38499,-0.28155 v 0 c -1.55014,-0.0496 -3.08131,-0.14565 -4.56114,-0.67321 -0.56483,-0.18939 -1.13559,-0.36191 -1.69447,-0.56817 -2.1317,-0.7867 -4.15041,-1.83003 -6.12352,-2.949 z" />
    <path
       style="fill:#000000;stroke:#000000;stroke-width:0.811001"
       id="path10"
       d="m 63.286713,186.2848 c -0.633119,2.08164 -0.630544,4.2512 -0.488661,6.3994 0.05032,1.65476 0.615648,3.26154 0.497993,4.92014 -0.03177,0.1355 -0.06354,0.27101 -0.09532,0.40652 0,0 0.434007,0.23391 0.434007,0.23391 v 0 c 0.03255,-0.13804 0.06511,-0.27608 0.09767,-0.41412 0.121997,-1.66359 -0.452525,-3.27284 -0.50678,-4.93216 -0.143632,-2.14057 -0.148918,-4.30364 0.493482,-6.37555 z" />
    <path
       style="fill:#000000;stroke:#000000;stroke-width:0.811001"
       id="path11"
       d="m 67.26375,207.59726 c 1.27748,1.20172 2.348587,2.60612 3.599958,3.8334 0.322662,0.31645 0.667919,0.60901 1.001879,0.91351 2.914835,2.4239 6.555893,3.51573 10.171798,4.39679 1.854858,0.33426 0.97201,0.21028 2.645537,0.39278 0,0 -0.385575,-0.2866 -0.385575,-0.2866 v 0 c -1.66587,-0.18212 -0.786678,-0.0583 -2.634538,-0.39226 -1.85402,-0.45264 -3.653714,-0.95961 -5.439082,-1.6429 -0.459584,-0.1759 -0.925364,-0.34209 -1.363049,-0.56701 -1.022786,-0.52558 -1.642324,-1.04247 -2.552985,-1.72011 -0.333955,-0.30318 -0.67944,-0.59413 -1.001864,-0.90955 -1.250288,-1.22313 -2.31802,-2.62531 -3.585408,-3.8317 z" />
    <path
       style="fill:#000000;stroke:#000000;stroke-width:0.811001"
       id="path12"
       d="m 75.317592,201.48506 c 1.377731,1.94659 3.340333,3.29272 5.333905,4.53698 3.202287,1.90988 6.78353,2.95948 10.380988,3.82703 3.03035,0.6795 6.094828,1.18638 9.144345,1.76806 0,0 -0.378422,-0.28593 -0.378422,-0.28593 v 0 c -3.049309,-0.57609 -6.112282,-1.08455 -9.140517,-1.76809 -3.292057,-0.79677 -6.572589,-1.74151 -9.564513,-3.36974 -1.987791,-1.23596 -3.952775,-2.5707 -5.321536,-4.5135 z" />
    <path
       style="fill:#000000;stroke:#000000;stroke-width:0.811001"
       id="path13"
       d="m 89.718765,196.08867 c 1.771536,1.2553 3.783174,2.09078 5.884519,2.60803 0.747781,0.18406 1.500306,0.36434 2.265047,0.45506 0.810961,0.0962 1.631823,0.0694 2.447739,0.10404 4.33101,-0.11143 8.38324,-1.64635 12.37303,-3.18158 0,0 -0.39269,-0.26377 -0.39269,-0.26377 v 0 c -3.9796,1.5422 -8.02652,3.06996 -12.350901,3.17363 -0.815099,-0.037 -1.635284,-0.013 -2.445298,-0.11114 -0.764545,-0.0927 -1.516964,-0.27338 -2.264235,-0.45968 -1.77827,-0.44333 -3.553447,-1.07997 -5.057026,-2.14771 z" />
    <path
       style="fill:#000000;stroke:#000000;stroke-width:0.811001"
       id="path14"
       d="m 109.27131,215.54567 c 2.33389,-0.91541 4.51084,-2.16756 6.6736,-3.42252 3.11111,-1.91855 6.36185,-3.66053 9.24388,-5.9267 0.53872,-0.42359 1.04561,-0.88616 1.56841,-1.32925 1.56793,-1.35624 2.81078,-2.96512 3.69731,-4.84205 0.69165,-1.46435 1.0749,-2.82484 1.56825,-4.35892 0,0 -0.40502,-0.22249 -0.40502,-0.22249 v 0 c -0.49629,1.54641 -0.86702,2.87438 -1.56572,4.34978 -0.88585,1.87057 -2.12793,3.47372 -3.69017,4.82692 -0.52172,0.44245 -1.02751,0.9044 -1.56518,1.32733 -2.88106,2.26628 -6.13072,4.00929 -9.24601,5.91941 -2.16701,1.25037 -4.34766,2.50135 -6.68856,3.40355 z" />
    <path
       style="fill:#000000;stroke:#000000;stroke-width:0.811001"
       id="path15"
       d="m 113.76285,206.63661 c 1.68281,-0.89435 3.36883,-1.81587 4.93882,-2.90114 0.42831,-0.29607 0.83745,-0.61898 1.25618,-0.92846 2.19848,-1.73812 4.06702,-3.83781 6.09726,-5.75776 0.98169,-0.96408 0.49573,-0.50424 1.45515,-1.38241 0,0 -0.41187,-0.25483 -0.41187,-0.25483 v 0 c -0.95789,0.88092 -0.47264,0.4203 -1.45316,1.38455 -2.02453,1.92231 -3.88841,4.02331 -6.08794,5.75667 -0.41841,0.30847 -0.82718,0.63048 -1.25523,0.92543 -1.57267,1.08363 -3.26099,2.005 -4.9522,2.88622 z" />
    <ellipse
       style="fill:#e10078;fill-opacity:1;stroke:none;stroke-width:0.642608"
       id="path16"
       cx="113.50642"
       cy="96.327751"
       rx="4.3264785"
       ry="4.9627247" />
    <ellipse
       style="fill:#e10078;fill-opacity:1;stroke:none;stroke-width:0.607226"
       id="ellipse16"
       cx="88.311043"
       cy="89.20179"
       rx="4.0719795"
       ry="4.7082257" />
  </g>
</svg>
